<svg width="147" height="78" fill="none" xmlns="http://www.w3.org/2000/svg"><g filter="url(#a)"><path d="M143 0H4l60 66c5 5 14 5 19 0l60-66Z" fill="#81B3D3"/><path d="m41 0 32 38 32-37-64-1Z" fill="#23A9E1"/><path d="M65 15h18c-2-1-5-5-6-4 0 1-5-5-8-2-3 2-4-1-7 1-4 3 2 4 3 5Zm27-4H82c4-4 6-4 10 0Z" fill="#fff"/><path d="M102 4V1h2l-2 3Zm-49 9 6-5c3-2 8-5 14-5s11 3 15 5l6 5-3 3c-4 1-7 4-12 3-2 0-2-1-3-3l-2-1-4-1c-1 1-1 3-3 3s-2-1-3-3c-4-5-8-5-11 0l20 23-20-24ZM44 1v2l-1-2h1Zm54 0h3v3l-3 4V1Zm-4 12V1h4v8l-4 4Zm0-11v10l-4-3 4-7Zm-5 0v7l-1-1-2-2 3-4Zm-4 0v4l-3-2 3-2Zm1-1h3l-3 5V1Zm4 0h4l-4 7V1Zm-9 0h4l-3 3h-1V1Zm0 1v2l-3-1 3-1Zm-5 0v1h-2l2-1Zm-6 0 2 1h-2V2Zm-5 0 4 1-4 1V2Zm4 1-3-2h3v2Zm4-1-3-1h3v1Zm0-1h3l-3 1V1Zm4 0h3l-3 2V1ZM65 4l-4-3h4v3Zm-4-2 3 2-3 2V2Zm-4 0 3 4-3 3V2Zm-5 0 4 7-4 3V2Zm4 6-3-7h3v7Zm4-2-3-5h3v5ZM48 7l-3-3V1h3v6Zm0-6h4v11l-4-4V1Zm25-1H40v15l33 39 33-39V0H73Z" fill="#491213"/><path d="m70 46 3-4 3 4-3 4-3-4Z" fill="#23A9E1"/><path d="M78 30c-3-2-2-3 1-4 1-1 4-4 6-3l-7 7Zm-2 3h-6c1 0 4 1 1 2h4l-1-1 2-1Zm1-2h-2c-2-2-6-1-8-1 1 2 10 3 10 1Zm-7-2c-1 0-6 0-3-2 1 0 7 0 3 2Zm2-3c0-1 1-2 2-1s0 2-2 1Zm-2 0c-3 1-6-1-2-1 2-1 5 0 2 1 0 0-1 0 0 0Zm-3-6c-1 2-2 2-1 0 0-2 1-2 3-2 1-1 2-4 4-2l3 1-2 7c-3 0-2-4 0-7-2 1-3 4-2 5-1 1-3 3-5 2v-4Zm-4 3c-6 0-2-9 0-8s2 8 0 8Zm-6-8c-3 0-2-3 0-3 2-1 5 1 6 2h-6v1Z" fill="#DC6243"/><path d="M76 26c-3-3 4-3 6-4l8-5c-1 1-3 5-5 5l-4 1-5 3Z" fill="#F49774"/><path d="M77 22c-2 1-3-2 0-2h5l-5 2Z" fill="#F4B1A4"/><path d="m55 21 1 1v1l1-1-3-5-3 2h3l-4 3h-1l1 1 1 2v-1l4-3Zm-3-5s0 1 0 0l-1-2h-1l-4 4h-1l2 2v1-1l1-1 4-3Zm-6 0c-1 0-2 0-3-2l2-3 3 1-1 1v1l2-2-1-2-3-1c-2 0-3 2-3 3v3l2 2 2-1Zm26 23-3-3-1-1v1l-4 3-1 1 2 2v-1l3-2v1l1 1-1 1 2-2v-1h-2l1-1 2 1-1 1v1l2-2Zm-10-9-2 1v5c1 2 3 2 5 1 1-2 2-4 1-5l-4-2Zm2 2 1 2-3 2c-1 0-2-1-1-2l2-2h1Zm-3-5h1l-2-2v1l-2 1 1-2h1l-2-2-1-1v1l-1 3-2 2h-1l2 2 1-1 2-1 3-1Zm24 7v1l-1 2-2-2 2-1-2-1v1l-1 1v-2l1-1h1l-2-1-3 4 5 4 4-4-2-2v1Zm-4 4c-1-1-3 1-4 1l-1-1 2-1h1l-2-1-1 2-1 2 1 1h2l1-1 2 1-2 2-1-1h-1l2 2 1-1 1-1v-4Zm18-28-1 1-1 1v1c1-1 4 5 3 5l-4-3v-1l-1 1-1 1h1l2 1h-2l-1-1-2 2v1l4 3 1 1 1-1h-1l-4-3h6v1l1-1v-1h1l1-1h-1l-1-1 1-1h2v1l2-3-6-2v-1Zm0 3 2 1h-1v1l-1-2Zm-7 7-3 2v5c2 1 4 1 5-1v-5l-2-1Zm-1 2 1 1 2 2v1l-3-1c-1 0-2-2-1-3h1Zm-4 4-3 2-2 2h1l4 4 3-4v-3l-3-1Zm-1 2h1c1 0 3 2 2 4h-1l-4-3 2-1Z" fill="#fff"/></g><defs><filter id="a" x="0" y="0" width="147" height="78" filterUnits="userSpaceOnUse" color-interpolation-filters="sRGB"><feFlood flood-opacity="0" result="BackgroundImageFix"/><feColorMatrix in="SourceAlpha" values="0 0 0 0 0 0 0 0 0 0 0 0 0 0 0 0 0 0 127 0" result="hardAlpha"/><feOffset dy="4"/><feGaussianBlur stdDeviation="2"/><feComposite in2="hardAlpha" operator="out"/><feColorMatrix values="0 0 0 0 0 0 0 0 0 0 0 0 0 0 0 0 0 0 0.25 0"/><feBlend in2="BackgroundImageFix" result="effect1_dropShadow_20204_274"/><feBlend in="SourceGraphic" in2="effect1_dropShadow_20204_274" result="shape"/></filter></defs></svg>